<?xml version="1.0" encoding="UTF-8"?>
<svg id="_레이어_1" data-name="레이어 1" xmlns="http://www.w3.org/2000/svg" viewBox="0 0 161.99 51.37">
  <defs>
    <style>
      .cls-1 {
        fill: #1e1e1e;
      }

      .cls-1, .cls-2 {
        stroke-width: 0px;
      }

      .cls-2 {
        fill: #c5b3ff;
      }
    </style>
  </defs>
  <path class="cls-1" d="m25.1,50.79C11.26,50.79,0,39.53,0,25.68S11.26.58,25.1.58s25.1,11.26,25.1,25.1-11.26,25.1-25.1,25.1Zm0-36.21c-6.12,0-11.1,4.98-11.1,11.1s4.98,11.1,11.1,11.1,11.1-4.98,11.1-11.1-4.98-11.1-11.1-11.1Z"/>
  <path class="cls-1" d="m136.88,50.79c-13.84,0-25.11-11.26-25.11-25.1S123.04.58,136.88.58s25.1,11.26,25.1,25.1-11.26,25.1-25.1,25.1Zm0-36.21c-6.12,0-11.11,4.98-11.11,11.1s4.98,11.1,11.11,11.1,11.1-4.98,11.1-11.1-4.98-11.1-11.1-11.1Z"/>
  <path class="cls-2" d="m77.69,0h-10.71c-3.87,0-7,3.13-7,7v37.37c0,3.87,3.13,7,7,7h10.71c14.16,0,25.68-11.52,25.68-25.68S91.86,0,77.69,0Z"/>
</svg>